<?xml version="1.0" standalone="no"?>
<!DOCTYPE svg PUBLIC "-//W3C//DTD SVG 20010904//EN"
 "http://www.w3.org/TR/2001/REC-SVG-20010904/DTD/svg10.dtd">
<svg version="1.0" xmlns="http://www.w3.org/2000/svg"
 width="500.000000pt" height="161.000000pt" viewBox="0 0 500.000000 161.000000"
 preserveAspectRatio="xMidYMid meet">
<metadata>
Created by potrace 1.15, written by Peter Selinger 2001-2017
</metadata>
<g transform="translate(0.000000,161.000000) scale(0.100000,-0.100000)"
fill="#000000" stroke="none">
<path d="M560 1040 l0 -560 120 0 120 0 2 413 3 412 100 -412 100 -413 117 0
117 0 9 33 c5 19 52 199 103 401 l94 367 3 -400 2 -401 120 0 120 0 0 560 0
560 -187 0 -188 0 -89 -353 c-49 -193 -92 -355 -95 -359 -4 -5 -45 154 -91
352 l-84 360 -198 0 -198 0 0 -560z"/>
<path d="M1870 1040 l0 -560 115 0 115 0 0 560 0 560 -115 0 -115 0 0 -560z"/>
<path d="M2705 1583 c-121 -16 -235 -74 -315 -159 -204 -219 -197 -598 14
-810 165 -165 453 -202 682 -89 89 44 179 136 224 230 87 182 78 416 -24 589
-102 175 -336 271 -581 239z m230 -98 c182 -48 294 -171 332 -365 22 -111 8
-214 -42 -317 -81 -164 -229 -253 -420 -253 -273 0 -465 198 -465 479 0 232
122 399 331 455 72 19 191 20 264 1z"/>
<path d="M3570 1025 l0 -545 45 0 45 0 2 438 3 439 365 -438 c277 -333 370
-438 388 -438 l22 -1 0 545 0 545 -45 0 -45 0 -2 -438 -3 -439 -365 438 c-280
336 -370 438 -387 439 l-23 0 0 -545z"/>
<path d="M201 1483 c-134 -134 -193 -271 -193 -453 0 -169 50 -310 151 -422
45 -50 116 -108 132 -108 4 0 28 26 52 58 l45 57 -44 48 c-58 65 -111 174
-131 274 -15 70 -16 93 -5 165 15 106 71 223 141 296 l51 53 -47 55 c-26 30
-53 54 -60 54 -8 0 -49 -35 -92 -77z"/>
<path d="M4628 1504 l-48 -55 35 -30 c85 -75 153 -223 162 -353 9 -141 -42
-294 -132 -394 -25 -27 -45 -53 -45 -56 0 -15 83 -116 95 -116 22 0 148 124
187 184 62 97 90 200 91 336 2 132 -13 193 -71 305 -38 73 -185 235 -213 235
-8 0 -35 -25 -61 -56z"/>
<path d="M580 165 c0 -130 2 -155 15 -155 12 0 15 23 17 122 l3 122 50 -77
c28 -42 55 -77 61 -77 6 0 34 35 63 78 l51 77 0 -122 c0 -116 1 -123 20 -123
19 0 20 7 20 155 0 154 0 155 -22 155 -18 0 -35 -20 -77 -86 l-54 -86 -56 86
c-84 128 -91 123 -91 -69z"/>
<path d="M1110 165 c0 -148 1 -155 20 -155 19 0 20 7 20 123 l0 122 51 -77
c29 -43 57 -78 63 -78 6 0 35 37 63 83 l52 82 1 -127 c0 -107 2 -128 15 -128
13 0 15 24 15 155 0 145 -1 155 -19 155 -12 0 -36 -27 -71 -80 -29 -44 -55
-80 -59 -80 -3 0 -30 36 -59 80 -36 56 -58 80 -72 80 -19 0 -20 -7 -20 -155z"/>
<path d="M1611 302 c-12 -23 -131 -285 -131 -289 0 -2 8 -3 18 -3 11 0 25 14
35 35 l17 35 85 0 85 0 17 -35 c10 -22 24 -35 36 -35 10 0 17 4 15 9 -1 4 -32
74 -68 154 -66 149 -86 172 -109 129z"/>
<path d="M1790 305 c0 -12 13 -15 55 -15 l55 0 0 -140 c0 -118 2 -140 15 -140
13 0 15 22 15 140 l0 140 55 0 c42 0 55 3 55 15 0 13 -21 15 -125 15 -104 0
-125 -2 -125 -15z"/>
<path d="M2260 165 c0 -129 2 -155 15 -155 10 0 15 16 17 65 l3 66 72 -66 c46
-42 79 -65 95 -65 19 1 10 13 -59 80 l-82 78 77 76 c69 67 74 76 52 76 -18 0
-43 -18 -85 -60 -33 -33 -63 -60 -67 -60 -4 0 -8 27 -8 60 0 47 -3 60 -15 60
-13 0 -15 -24 -15 -155z"/>
<path d="M2763 300 c-44 -27 -63 -68 -63 -138 0 -45 6 -67 23 -93 61 -91 203
-91 264 0 46 68 23 193 -41 232 -43 26 -140 26 -183 -1z m158 -27 c59 -35 76
-124 36 -184 -65 -97 -208 -61 -224 58 -7 50 19 108 56 128 36 19 97 19 132
-2z"/>
<path d="M3100 165 c0 -148 1 -155 20 -155 19 0 20 7 20 116 l0 115 93 -112
c50 -62 98 -114 105 -117 9 -3 12 32 12 152 0 131 -2 156 -15 156 -12 0 -15
-22 -17 -117 l-3 -118 -95 117 c-52 65 -101 118 -107 118 -10 0 -13 -38 -13
-155z"/>
<path d="M3450 165 l0 -155 105 0 c87 0 105 3 105 15 0 12 -16 15 -85 15 l-85
0 0 140 c0 133 -1 140 -20 140 -19 0 -20 -7 -20 -155z"/>
<path d="M3870 165 c0 -147 1 -155 20 -155 18 0 20 8 22 112 l3 113 90 -112
c50 -61 96 -112 103 -112 9 -1 12 36 12 154 0 131 -2 155 -15 155 -13 0 -15
-20 -15 -121 l0 -121 -97 121 c-54 66 -104 120 -110 121 -10 0 -13 -37 -13
-155z"/>
<path d="M4220 165 l0 -155 115 0 c96 0 115 3 115 15 0 12 -17 15 -95 15 l-95
0 0 55 0 55 85 0 c69 0 85 3 85 15 0 12 -16 15 -85 15 l-85 0 0 55 0 55 90 0
c73 0 90 3 90 15 0 12 -19 15 -110 15 l-110 0 0 -155z"/>
</g>
</svg>
