<?xml version="1.0" encoding="utf-8"?>
<!-- Generator: Adobe Illustrator 15.0.0, SVG Export Plug-In . SVG Version: 6.00 Build 0)  -->
<!DOCTYPE svg PUBLIC "-//W3C//DTD SVG 1.1//EN" "http://www.w3.org/Graphics/SVG/1.1/DTD/svg11.dtd">
<svg version="1.1" id="Capa_1" xmlns="http://www.w3.org/2000/svg" xmlns:xlink="http://www.w3.org/1999/xlink" x="0px" y="0px"
	 width="127.56px" height="41.436px" viewBox="0 0 127.56 41.436" enable-background="new 0 0 127.56 41.436" xml:space="preserve">
<polygon fill="#9C223D" points="14.338,28.635 14.338,0.027 24.168,0.027 28.738,19.482 28.819,19.482 33.674,0.027 43.18,0.027 
	43.18,28.635 37.234,28.635 37.234,6.563 37.153,6.563 31.53,28.635 25.705,28.635 20.365,6.563 20.284,6.563 20.284,28.635 "/>
<path fill="#58585A" d="M9.839,3.84c-3.038,2.437-5.035,6.435-5.035,10.799c0,3.997,1.823,8.277,4.746,10.628l-2.286,3.006
	C2.401,25.098,0,20.25,0,14.639C0,9.055,3.008,4.094,7.407,1.062L9.839,3.84z"/>
<path fill="#58585A" d="M120.15,1.062c4.398,3.032,7.408,7.993,7.408,13.577c0,5.61-2.4,10.458-7.264,13.634l-2.287-3.006
	c2.926-2.352,4.746-6.631,4.746-10.628c0-4.365-1.996-8.362-5.031-10.799L120.15,1.062z"/>
<rect x="47.929" fill="#9C223D" width="5.598" height="28.736"/>
<path fill="#9C223D" d="M59.656,14.78c0.043,6.304,4.117,12.447,12.225,12.447c8.148,0,12.262-6.143,12.262-12.447
	c0-6.467-4.078-12.412-12.262-12.412C63.691,2.368,59.615,8.189,59.656,14.78 M86.266,14.815
	c-0.047,7.347-4.809,14.407-14.385,14.407c-9.57,0-14.381-7.102-14.381-14.483c0-7.503,4.768-14.371,14.381-14.371
	C81.498,0.368,86.309,7.272,86.266,14.815"/>
<polygon fill="#9C223D" points="92.475,0.812 111.664,23.914 111.664,0.812 113.824,0.812 113.824,28.752 112.963,28.752 
	93.738,5.682 93.738,28.752 91.531,28.752 91.531,0.812 "/>
<g>
	<path d="M21.553,33.994l-3.003,4.594h-0.201l-3.026-4.594v6.971h-0.605v-7.846c0.291,0,0.426,0,0.717,0l3.003,4.572l2.97-4.572
		h0.74v7.846h-0.594V33.994z"/>
	<path d="M25.011,40.965v-7.846h0.594v7.846H25.011z"/>
	<path d="M35.301,33.994l-3.004,4.594h-0.202l-3.026-4.594v6.971h-0.605v-7.846c0.291,0,0.426,0,0.717,0l3.003,4.572l2.97-4.572
		h0.74v7.846h-0.594V33.994z"/>
	<path d="M44.99,40.965l-0.863-1.928h-4.684l-0.852,1.928h-0.65l3.519-7.846h0.661l3.52,7.846H44.99z M43.892,38.475l-2.107-4.773
		l-2.106,4.773H43.892z"/>
	<path d="M48.715,33.668h-2.835v-0.537h6.276v0.537h-2.836v7.297h-0.604V33.668z"/>
	<path d="M54.436,40.965v-7.846h0.593v7.846H54.436z"/>
	<path d="M63.392,40.965H62.63l-4.136-3.867v3.855h-0.605v-7.834h0.605v3.576l3.811-3.576h0.729v0.057l-3.945,3.697l4.304,4.045
		V40.965z"/>
	<path d="M77.094,37.053c-0.012,2.061-1.322,4.047-3.957,4.047c-2.633,0-3.955-1.996-3.955-4.068c0-2.109,1.311-4.037,3.955-4.037
		S77.104,34.934,77.094,37.053z M69.775,37.041c0.012,1.771,1.131,3.496,3.361,3.496c2.242,0,3.373-1.725,3.373-3.496
		c0-1.816-1.119-3.484-3.373-3.484C70.885,33.557,69.764,35.191,69.775,37.041z"/>
	<path d="M79.922,33.119l5.279,6.488v-6.488h0.594v7.846h-0.234l-5.291-6.479v6.479h-0.604v-7.846H79.922z"/>
	<path d="M89.273,33.119v7.273h4.418v0.572H88.67v-7.846H89.273z"/>
	<path d="M95.971,40.965v-7.846h0.594v7.846H95.971z"/>
	<path d="M99.682,33.119l5.279,6.488v-6.488h0.592v7.846h-0.234l-5.289-6.479v6.479h-0.605v-7.846H99.682z"/>
	<path d="M109.021,36.738h4.596v0.551h-4.596v3.094h4.953v0.582h-5.547v-7.846h5.414v0.57h-4.82V36.738z"/>
</g>
</svg>
